<svg width="50" height="14" fill="none" xmlns="http://www.w3.org/2000/svg"><path d="M2.024 11.416H7.46V13H.35V.4h1.674v11.016zm16.73-.09c-1.26 1.272-2.802 1.908-4.626 1.908-1.824 0-3.366-.636-4.626-1.908-1.26-1.272-1.89-2.814-1.89-4.626 0-1.824.63-3.366 1.89-4.626C10.762.802 12.304.166 14.128.166c1.824 0 3.366.636 4.626 1.908 1.272 1.26 1.908 2.802 1.908 4.626 0 1.812-.636 3.354-1.908 4.626zm-8.1-1.134c.936.936 2.094 1.404 3.474 1.404 1.38 0 2.532-.468 3.456-1.404.936-.948 1.404-2.112 1.404-3.492 0-1.392-.468-2.556-1.404-3.492-.924-.948-2.076-1.422-3.456-1.422s-2.538.474-3.474 1.422c-.924.936-1.386 2.1-1.386 3.492 0 1.38.462 2.544 1.386 3.492zm24.17-3.438v.756c0 1.644-.564 3.012-1.692 4.104-1.128 1.08-2.622 1.62-4.482 1.62-1.92 0-3.51-.63-4.77-1.89-1.248-1.272-1.872-2.82-1.872-4.644 0-1.824.624-3.366 1.872-4.626C25.14.802 26.718.166 28.614.166a6.27 6.27 0 013.204.846c.972.552 1.722 1.284 2.25 2.196l-1.44.846c-.36-.684-.906-1.23-1.638-1.638a4.664 4.664 0 00-2.394-.63c-1.44 0-2.622.474-3.546 1.422-.924.936-1.386 2.1-1.386 3.492s.462 2.556 1.386 3.492c.936.936 2.142 1.404 3.618 1.404 1.26 0 2.28-.306 3.06-.918a3.814 3.814 0 001.422-2.412h-4.626V6.754h6.3zm12.512 4.572c-1.26 1.272-2.802 1.908-4.626 1.908-1.824 0-3.366-.636-4.626-1.908-1.26-1.272-1.89-2.814-1.89-4.626 0-1.824.63-3.366 1.89-4.626C39.344.802 40.886.166 42.71.166c1.824 0 3.366.636 4.626 1.908 1.272 1.26 1.908 2.802 1.908 4.626 0 1.812-.636 3.354-1.908 4.626zm-8.1-1.134c.936.936 2.094 1.404 3.474 1.404 1.38 0 2.532-.468 3.456-1.404.936-.948 1.404-2.112 1.404-3.492 0-1.392-.468-2.556-1.404-3.492-.924-.948-2.076-1.422-3.456-1.422s-2.538.474-3.474 1.422c-.924.936-1.386 2.1-1.386 3.492 0 1.38.462 2.544 1.386 3.492z" fill="#ADADAD"/></svg>